<svg width="29" height="29" viewBox="0 0 29 29" fill="none" xmlns="http://www.w3.org/2000/svg">
<path d="M6.15725 24C3.80955 23.8564 1.72736 22.6734 0.617648 20.1324C-0.481621 17.6138 -0.108735 15.2193 1.71393 13.1539C2.85944 11.8572 4.12576 10.6667 5.36374 9.45372C6.03643 8.79565 7.04024 8.81659 7.68011 9.44176C8.34087 10.0879 8.36473 11.1034 7.68757 11.8033C6.55996 12.9684 5.38164 14.0841 4.26597 15.2597C2.55964 17.0559 3.35612 19.9529 5.72022 20.5616C6.91197 20.8682 7.96649 20.5526 8.84203 19.6792C9.95024 18.5739 11.048 17.4582 12.1607 16.3574C12.7215 15.8026 13.3927 15.6859 14.055 15.9895C14.6889 16.2797 15.108 16.9198 14.9917 17.6138C14.9275 17.9951 14.7485 18.4184 14.486 18.6951C13.345 19.899 12.1741 21.0746 10.9779 22.2232C9.74143 23.4062 8.23795 23.9776 6.15725 24Z" fill="#72CDC2"/>
<path d="M17.742 0C20.1479 0.12264 22.1988 1.2952 23.3323 3.76444C24.4599 6.21873 24.1631 8.61021 22.4255 10.6756C21.2531 12.068 19.8973 13.3094 18.5892 14.5822C17.921 15.2328 16.8933 15.1684 16.2773 14.5223C15.6509 13.8658 15.6449 12.8832 16.3072 12.2012C17.4363 11.0391 18.6131 9.92036 19.7288 8.74481C21.4336 6.94709 20.6386 4.04861 18.2775 3.4399C17.1111 3.13928 16.0625 3.42793 15.1975 4.28491C14.1116 5.36025 13.0392 6.44906 11.9563 7.52739C11.139 8.3395 10.1381 8.39035 9.44009 7.66498C8.76889 6.96654 8.83452 5.96298 9.61311 5.17779C10.6632 4.1189 11.7192 3.06749 12.7707 2.0101C14.0669 0.707422 15.627 0.0329033 17.742 0Z" fill="#72CDC2"/>
<path d="M8.81366 17.0918C7.88145 17.0484 7.36835 16.7553 7.09093 16.1346C6.80753 15.5035 6.88062 14.8918 7.32659 14.3548C7.56375 14.0692 7.84266 13.8194 8.10518 13.5547C10.1292 11.5251 12.1488 9.49262 14.1787 7.46757C14.7694 6.8783 15.5569 6.75715 16.2192 7.11909C16.8546 7.46607 17.2051 8.18845 17.0112 8.92279C16.9247 9.24734 16.7338 9.58385 16.4966 9.82464C14.2876 12.0681 12.0712 14.2995 9.8294 16.504C9.50723 16.8196 9.02695 16.9721 8.81366 17.0918Z" fill="#72CDC2"/>
</svg>
