<?xml version="1.0" encoding="utf-8"?>
<!-- Generator: Adobe Illustrator 23.0.5, SVG Export Plug-In . SVG Version: 6.00 Build 0)  -->
<svg version="1.1" id="Capa_1" xmlns="http://www.w3.org/2000/svg" xmlns:xlink="http://www.w3.org/1999/xlink" x="0px" y="0px"
	 viewBox="0 0 512 512" style="enable-background:new 0 0 512 512;" xml:space="preserve">
<style type="text/css">
	.st0{fill:url(#SVGID_1_);}
	.st1{fill:url(#SVGID_2_);}
</style>
<g>
	
		<linearGradient id="SVGID_1_" gradientUnits="userSpaceOnUse" x1="6.8633" y1="260.2704" x2="241.1377" y2="260.2704" gradientTransform="matrix(-1 0 0 -1 512 520.5408)">
		<stop  offset="3.062186e-03" style="stop-color:#60E9DF"/>
		<stop  offset="1" style="stop-color:#6CD1C3"/>
	</linearGradient>
	<path class="st0" d="M304.4,284.7c20.9,21.3,48.7,33.7,78.5,35c0.1,1.9,0.2,4.4,0.2,7.9c0,14.4-10.9,58.2-17.8,82.5l-7,24.8h85.5
		l5.7-9.2c2.3-3.7,55.6-91.2,55.6-223.1c0-64.6-52.5-117.1-117.1-117.1s-117.1,52.5-117.1,117.1
		C270.9,233.6,282.8,262.7,304.4,284.7z"/>
	
		<linearGradient id="SVGID_2_" gradientUnits="userSpaceOnUse" x1="270.8623" y1="260.2704" x2="505.1367" y2="260.2704" gradientTransform="matrix(-1 0 0 -1 512 520.5408)">
		<stop  offset="3.062186e-03" style="stop-color:#60E9DF"/>
		<stop  offset="1" style="stop-color:#6CD1C3"/>
	</linearGradient>
	<path class="st1" d="M40.4,284.7c20.9,21.3,48.7,33.7,78.5,35c0.1,1.9,0.2,4.4,0.2,7.9c0,14.4-10.9,58.2-17.8,82.5l-7,24.8h85.5
		l5.7-9.2c2.3-3.7,55.6-91.2,55.6-223.1c0-64.6-52.5-117.1-117.1-117.1S6.9,138.1,6.9,202.7C6.9,233.6,18.8,262.7,40.4,284.7z"/>
</g>
</svg>
