<?xml version="1.0" encoding="utf-8"?>
<!-- Generator: Adobe Illustrator 23.0.5, SVG Export Plug-In . SVG Version: 6.00 Build 0)  -->
<svg version="1.1" id="Layer_1" xmlns="http://www.w3.org/2000/svg" xmlns:xlink="http://www.w3.org/1999/xlink" x="0px" y="0px"
	 viewBox="0 0 390 390" style="enable-background:new 0 0 390 390;" xml:space="preserve">
<style type="text/css">
	.st0{fill:#FFFFFF;}
</style>
<g>
	<path class="st0" d="M46.4,167.8c-0.1-30.6,6-59.9,21.3-86.6c20.3-35.5,50.2-58.7,90.6-66.8c30.5-6.1,60.9-5.3,90.6,4.9
		c27.4,9.5,49.1,26.7,66,50.2c17.6,24.5,26.1,52,28.2,81.8c1.7,23.8,0.1,47.3-7.4,69.9c-14.5,44.1-42.3,76-86.8,92
		c-5.8,2.1-7.4,0.7-6-5.5c0.6-2.8,1.1-5.7,0.4-8.4c-4.6-18,0.6-32.9,12.5-46.9c35.3-41.5,18-105.8-33.1-124.6
		c-31.7-11.7-59.8-4.7-83.8,17.9c-30.4,28.5-31.4,78.6-3.1,109.3c11,12,14,26.1,11.2,41.7c-0.8,4.1-1,8.1,0.1,12.2
		c1.3,4.7-0.5,6.4-5.2,4.9c-15.7-5-30.1-12.5-42.6-23.4c-30.6-26.7-47.2-60.7-52.1-100.8C46.5,182.4,46.6,175.1,46.4,167.8z"/>
	<path class="st0" d="M196.2,338.2c7.6,0,15.3,0,22.9,0c6.2,0,9.7,3.2,9.8,8.7c0.1,5.5-3.4,9-9.5,9.2c-7.1,0.2-14.3,0.1-21.4,0.1
		c-8.1,0-16.3,0.1-24.4,0c-8.2-0.2-12.5-6.8-9-13.5c1.6-3.1,4.2-4.5,7.7-4.5C180.2,338.3,188.2,338.2,196.2,338.2z"/>
	<path class="st0" d="M196.2,379.4c-5.3,0-10.6,0.1-15.9,0c-5.2-0.1-8.5-3.5-8.5-8.4c-0.1-5.3,3.1-8.9,8.4-9
		c10.6-0.1,21.3-0.1,31.9,0c4.9,0.1,7.8,3.4,7.9,8.4c0.1,5.3-2.7,8.7-7.8,9C206.8,379.6,201.5,379.4,196.2,379.4
		C196.2,379.4,196.2,379.4,196.2,379.4z"/>
</g>
</svg>
