<?xml version="1.0" encoding="utf-8"?>
<!-- Generator: Adobe Illustrator 23.0.5, SVG Export Plug-In . SVG Version: 6.00 Build 0)  -->
<svg version="1.1" id="Layer_1" xmlns="http://www.w3.org/2000/svg" xmlns:xlink="http://www.w3.org/1999/xlink" x="0px" y="0px"
	 viewBox="0 0 4065.2 584.1" style="enable-background:new 0 0 4065.2 584.1;" xml:space="preserve">
<style type="text/css">
	.st0{fill:#3D3D3D;}
	.st1{fill:#71CCC1;}
</style>
<g>
	<path class="st0" d="M808.1,189.7c6.3-11.9,13.3-21.5,22.8-29.1c16.4-13.2,35.5-19.8,55.9-23.2c21.7-3.6,43.1-2.3,63.9,4.9
		c25.5,8.9,42.6,26.9,52.9,51.6c0.5,1.3,1.1,2.6,2,4.5c5.7-8.6,11.2-16.6,17.7-23.9c17-19.2,38-31.5,63.2-36.3
		c24.2-4.6,48.4-4.1,71.6,4.7c33.7,12.9,51.1,39.2,58.6,73.2c2.3,10.6,3.1,21.3,3,32.2c0,56.3,0,112.6,0,169
		c0,11.8-5.1,18.6-16.5,21.9c-11.1,3.2-23.6-0.6-29-8.9c-2.5-3.8-2.9-8-2.9-12.4c0-56.5,0.1-113,0-169.5c0-11.3-1.1-22.6-4.9-33.3
		c-7.2-20.6-21.4-34.1-42.5-38.9c-33.4-7.5-63.4-0.5-88.1,24c-13,12.9-18.4,29.7-21,47.4c-1,6.6-1.1,13.2-1.1,19.9
		c0,49.3,0,98.7,0,148c0,12.1-3.9,18.5-13.7,22.5c-10.8,4.4-22,2.4-29.6-5.2c-4.6-4.6-5.7-10.3-5.7-16.4c0-58,0.1-116-0.1-174
		c0-12.2-2.4-24.1-7.8-35.2c-7.5-15.6-20-25.7-36.4-30.3c-25.1-7.1-49.5-4.6-72,9c-22.5,13.5-34.6,34.3-38.8,59.9
		c-1.3,8.1-1.6,16.2-1.6,24.3c0.1,48.2,0,96.3,0.1,144.5c0,10.3-2.5,18.8-12.8,23c-11,4.5-21.5,3.7-30.9-4
		c-4.2-3.4-5.8-8.5-5.8-13.8c0-85.8,0-171.6,0-257.5c0-10.9,11.6-20.6,23.8-20c8.6,0.4,16.9,1.5,22.2,9.8c2.4,3.8,3.4,7.9,3.5,12.3
		C808.1,172.4,808.1,180.2,808.1,189.7z"/>
	<path class="st1" d="M389.3,252.5c-0.1-30.6,6-59.9,21.3-86.6c20.3-35.5,50.2-58.7,90.6-66.8c30.5-6.1,60.9-5.3,90.6,4.9
		c27.4,9.5,49.1,26.7,66,50.2c17.6,24.5,26.1,52,28.2,81.8c1.7,23.8,0.1,47.3-7.4,69.9c-14.5,44.1-42.3,76-86.8,92
		c-5.8,2.1-7.4,0.7-6-5.5c0.6-2.8,1.1-5.7,0.4-8.4c-4.6-18,0.6-32.9,12.5-46.9c35.3-41.5,18-105.8-33.1-124.6
		c-31.7-11.7-59.8-4.7-83.8,17.9c-30.4,28.5-31.4,78.6-3.1,109.3c11,12,14,26.1,11.2,41.7c-0.8,4.1-1,8.1,0.1,12.2
		c1.3,4.7-0.5,6.4-5.2,4.9c-15.7-5-30.1-12.5-42.6-23.4c-30.6-26.7-47.2-60.7-52.1-100.8C389.4,267.1,389.5,259.8,389.3,252.5z"/>
	<path class="st1" d="M3506.4,280.6c0-29.8-0.1-59.7,0.1-89.5c0-5-1.5-6.2-6.3-6.1c-10.8,0.3-21.7,0.2-32.5,0.1
		c-9.1-0.1-15.9-6.6-17.1-15.8c-1-8.4,4.2-16.8,12-19c1.9-0.5,3.9-0.6,5.9-0.6c11.7-0.1,23.3-0.1,35,0c2.9,0,4-0.7,4.1-3.9
		c0.8-22.7,1.8-45.5,3-68.2c0.2-3.8,0.7-7.6,0.7-11.4c0.1-18.8,20.8-26.8,35.3-19.1c6.3,3.3,7.8,9.6,7.8,16.2c0.1,27,0.1,54-0.1,81
		c0,4.5,1.3,5.5,5.6,5.5c16.3-0.3,32.7-0.1,49-0.1c11.1,0,18.5,6.8,18.5,17.1c0.1,11.3-6.9,18.3-18.3,18.4
		c-16.7,0.1-33.3,0.1-50-0.1c-3.7,0-4.8,1-4.8,4.8c0.1,51.5,0,103,0.1,154.5c0,14.8,0.1,29.7,3,44.2c3.9,19.5,13.1,28.1,32.4,27.4
		c10-0.3,19.9-1.3,29.8-2.3c10.1-1,16.7,2.5,19.4,10.7c2.7,8.1-1.1,16.7-9.6,21.4c-6.2,3.4-13,4.9-20,5.9
		c-18.2,2.4-36.4,2.6-54.5-1.7c-24.7-5.9-37.7-22.8-43.6-46.3c-3.6-14.2-5.3-28.7-5.3-43.4C3506.4,333.6,3506.4,307.1,3506.4,280.6z
		"/>
	<path class="st0" d="M1800.6,226.5c0-63.3,0-126.6,0-190c0-14.6,9.4-24.7,23-24.6c14.9,0,25,9.8,25,24.5c0,126.5,0,253,0,379.4
		c0,10.2-4.4,17.7-13.5,22c-9.3,4.3-18.5,3.7-26.8-2.7c-5.9-4.5-7.7-11-7.7-18.1C1800.6,353.5,1800.6,290,1800.6,226.5z"/>
	<path class="st1" d="M4008.4,233.4c0-63.8,0-127.6,0-191.5c0-13.8,9.1-23.3,22.5-23.3c14.9,0,24.8,9.2,24.8,23.3
		c0,127.3,0,254.6,0,381.9c0,12-8.1,20.8-20.9,22.8c-11.2,1.8-22.4-4.7-25.5-14.5c-0.9-2.8-0.8-5.6-0.8-8.4
		C4008.4,360.4,4008.4,296.9,4008.4,233.4z"/>
	<path class="st0" d="M1990.1,226c0,63.2-0.1,126.3,0.1,189.5c0,10.7-4.3,18.3-14,22.5c-9.7,4.2-18.9,3.1-27.1-3.6
		c-5.1-4.2-6.4-10.3-6.9-16.5c-0.1-1,0-2,0-3c0-125.7,0-251.3-0.1-377c0-11.1,3.9-19.3,14.2-24.1C1972,6.5,1990,18,1990,35.6
		c0.1,34.2,0,68.3,0,102.5C1990.1,167.4,1990.1,196.7,1990.1,226z"/>
	<path class="st1" d="M3389.6,298.3c0,41.3-0.1,82.6,0,123.9c0,10.9-4.7,18.5-14.7,22.6c-9.6,4-18.7,2.6-26.6-4.1
		c-5.8-4.9-6.6-12.1-6.7-19.1c-0.1-58.5,0-116.9,0-175.4c0-24-0.1-48,0-71.9c0-9.4,3-17.3,11.8-22c15.1-8,36.2,0.7,36.2,20.6
		C3389.5,214.7,3389.6,256.5,3389.6,298.3z"/>
	<path class="st1" d="M2898.8,297.9c0,41.8-0.2,83.7,0.2,125.5c0.1,11.1-6.6,18.2-14.6,21.6c-9.3,4-20.7,1.8-27.3-5
		c-3.7-3.8-4.9-8.6-5.4-13.6c-0.3-2.8-0.3-5.7-0.3-8.5c0-79.7,0-159.3,0-239c0-4.6-0.3-9.3,1.2-13.9c3.7-11.5,14.8-17.5,28.5-15.1
		c7.8,1.3,18.1,10,18,22C2898.5,213.9,2898.8,255.9,2898.8,297.9z"/>
	<path class="st0" d="M1659.1,291.4c0-41.5,0-83,0-124.5c0-12,5.6-20,16.4-23.3c10.1-3.2,21.6,0.9,27.7,9.6
		c3.4,4.8,3.7,10.3,3.7,15.7c0.1,81.8,0.1,163.6,0,245.5c0,12.6-5.2,20.4-16,24.4c-9.4,3.5-20.3,1.1-27-6.2c-4-4.3-4.9-9.6-4.9-15.3
		C1659.2,375.4,1659.1,333.4,1659.1,291.4z"/>
	<path class="st1" d="M3365,72.9c-10.2,0.3-19.2-2-26.3-10.1c-11.1-12.7-6.6-31.6,6.8-40.1c10.9-7,31.2-6.5,41.3,1
		c9.2,6.9,13.5,18.5,10.6,29.2c-2.9,10.9-13,18.9-25.3,20.1C3369.6,73.1,3367.3,72.9,3365,72.9z"/>
	<path class="st0" d="M1684.2,67c-10.4-0.2-18.6-1.8-25.4-7.7c-13.9-12-11.8-33.2,4.1-43.4c10.7-6.8,30-6.6,40.3,0.8
		c9.2,6.6,13.9,15.6,11.8,27.1c-2,11.4-9.3,18.3-20.3,21.5C1690.7,66.5,1686.6,67.1,1684.2,67z"/>
	<path class="st1" d="M2875,73.2c-8.7,0.2-16.9-1.4-23.7-7.3c-15.1-13.2-10.8-38,8-45.4c9.4-3.7,19.2-3.8,28.8-0.9
		c13.1,4,20.9,16.3,19.4,30c-1.3,12-12.2,21.9-25.6,23.3C2879.7,73.1,2877.3,73.1,2875,73.2z"/>
	<path class="st1" d="M539.1,422.9c7.6,0,15.3,0,22.9,0c6.2,0,9.7,3.2,9.8,8.7c0.1,5.5-3.4,9-9.5,9.2c-7.1,0.2-14.3,0.1-21.4,0.1
		c-8.1,0-16.3,0.1-24.4,0c-8.2-0.2-12.5-6.8-9-13.5c1.6-3.1,4.2-4.5,7.7-4.5C523.1,423,531.1,422.9,539.1,422.9z"/>
	<path class="st1" d="M539.1,464.1c-5.3,0-10.6,0.1-15.9,0c-5.2-0.1-8.5-3.5-8.5-8.4c-0.1-5.3,3.1-8.9,8.4-9
		c10.6-0.1,21.3-0.1,31.9,0c4.9,0.1,7.8,3.4,7.9,8.4c0.1,5.3-2.7,8.7-7.8,9C549.7,464.3,544.4,464.1,539.1,464.1
		C539.1,464.1,539.1,464.1,539.1,464.1z"/>
	<path class="st0" d="M312.1,275.9c-12.8-25.7-33.9-41.6-60.4-51.1c-9.4-3.3-19-5.5-28.9-8.6c1.9-0.5,3.8-1,5.7-1.5
		c21.1-5.7,39.1-16.4,53.2-33.3c16.3-19.5,23.9-41.8,22.9-67.2c-1.1-28.4-11.8-52.2-33.4-70.8c-26-22.2-57-31-90.3-31.5
		c-48.3-0.7-96.7-0.2-145-0.2c-15.5,0-26.3,10.9-26.3,26.2c0,124.8,0,249.7,0,374.5c0,17.2,10.5,27.7,27.6,27.7c48.7,0,97.3,0,146,0
		c12.8,0,25.5-1.1,38.1-3.5c26.7-5,50.8-15.4,70.8-34.2C325.3,371.4,330.7,313.4,312.1,275.9z M62.6,126.3c0-22.8,0.1-45.6-0.1-68.5
		c0-3.3,0.6-4.6,4.3-4.5c27.8,0.2,55.6-0.2,83.5,0.2c21.6,0.3,43.2,2.1,63.2,11.5c23.3,11,35.1,29.6,36.1,55.1
		c0.5,11.2,0,22.3-4.4,32.8c-7.8,18.8-22.4,30.5-40.9,37.9c-15,6-30.8,8.3-46.8,8.5c-30.1,0.3-60.3,0-90.5,0.2
		c-3.9,0-4.6-1.1-4.6-4.8C62.7,171.9,62.6,149.1,62.6,126.3z M260.2,355.2c-9.2,21.4-26.7,32.3-48.4,37.6
		c-14.4,3.5-29.1,5.1-43.9,5.6c-33.5,1.1-67,0.3-100.4,0.6c-3.8,0-5-0.8-4.9-4.8c0.2-25.2,0.1-50.3,0.1-75.5
		c0-25.2,0.1-50.3-0.1-75.5c0-3.5,0.9-4.4,4.4-4.4c27,0.2,54-0.4,81,0.2c23.2,0.5,46.5,1.3,68.9,8.9c31,10.5,47.6,31.8,49.9,64.4
		C267.7,327.1,266.1,341.5,260.2,355.2z"/>
	<path class="st1" d="M2763.6,182.2c-7.3-42.9-23.6-81.3-56.4-111.3c-13.1-12-27.9-21.5-44-28.9c-37.1-17.1-76.6-22.7-116.9-23.2
		c-36.2-0.4-72.3-0.1-108.5-0.1c-19.5,0-28.5,8.9-28.5,28.3c0,61.7,0,123.3,0,185c0,55.7,0,111.3,0,167c0,7.5-0.2,15,0,22.5
		c0.4,15.3,10.9,25.4,26.2,25.5c10.2,0,20.3,0.1,30.5,0c36.8-0.6,73.6,1.6,110.3-1.7c24.8-2.3,49-7.1,72.2-16.3
		c33.5-13.3,62-33.3,83.1-63c25.2-35.5,34.1-76,35.9-118.5C2768.4,225.5,2767.3,203.7,2763.6,182.2z M2706.4,281.7
		c-5.1,28.4-15.2,54.6-35.2,76.4c-18.9,20.6-42.2,33-68.9,39.7c-18.1,4.6-36.6,6.4-55.3,6.3c-26.3-0.1-52.7-0.2-79,0.1
		c-4.6,0-5.5-1.4-5.5-5.6c0.1-55.5,0.1-111,0.1-166.5c0-55.2,0-110.3-0.1-165.5c0-4.4,0.9-5.9,5.6-5.9c22.8,0.3,45.7-0.3,68.5,0.2
		c28.2,0.6,55.9,4,82.3,14.8c36.7,15,62.7,40.8,77.6,77.5c8.7,21.3,12.4,43.6,13.4,66.6C2710.9,240.7,2710.1,261.3,2706.4,281.7z"/>
	<path class="st1" d="M3253.6,259.3c0-28.8,0-57.7,0-86.5c0-6.8-1.3-13.4-6.9-18c-11.7-9.5-37.3-7.4-38.8,14.5c-0.1,2-0.2,4-0.2,6
		c0,7.9,0,15.8,0,23.7c-0.7,0-0.9,0.1-0.9,0c-0.7-1.1-1.5-2.2-2.2-3.3c-11.3-18.3-26.3-32.6-45.9-41.7
		c-24.9-11.6-51.3-13.5-78.1-10.2c-33.9,4.2-60.4,21.3-80.2,48.8c-19,26.3-25.7,56.7-27.6,88.3c-1.3,22.8-0.8,45.6,4.8,67.9
		c5.8,23.1,15.8,44.1,32.3,61.6c17.6,18.7,39.4,29.6,64.6,33.9c22.2,3.8,44.3,4.2,66.1-2.2c28.2-8.3,49.9-25.2,65-50.9
		c0,8,0.1,16,0,23.9c-0.4,19.1,1.5,38.4-1.2,57.4c-3.1,21.9-13.4,39-33.9,49.2c-16.4,8.1-33.9,10.4-51.7,11.2
		c-20.1,0.9-39.9-0.5-58.9-7.9c-10.8-4.2-20.3-10.6-30.5-15.8c-6.1-3.2-12.8-4.5-19.3-2.3c-12,4.1-15.3,18.2-6.9,28.1
		c12.8,15.1,29.4,24.2,48,30.1c15.8,5,32.1,7.1,48.5,7.9c28.3,1.3,56.2-0.9,83.1-10.7c29.9-10.9,51.9-29.8,63-60.3
		c5.6-15.5,7.7-31.7,7.8-48C3253.7,388.9,3253.6,324.1,3253.6,259.3z M3205,308.6c-1.2,23.4-6.9,45.3-20.6,64.5
		c-12.7,17.8-29.1,31-50.7,36.5c-38.4,9.8-75.2-7.2-93.8-42.7c-9.3-17.7-13.6-36.6-14.6-56.4c-0.2-4.8-0.8-9.6-0.7-12.7
		c0.1-23.4,2.2-44.7,9.8-65.3c10.4-28.3,29.6-46.3,60.1-51c19.9-3,39.4-2.5,57.8,6.5c24.4,11.9,38.6,32.5,46.2,57.9
		C3204.5,266.5,3206.1,287.3,3205,308.6z"/>
	<path class="st0" d="M1586.1,282.7c-0.7-28.9-6.1-56.7-19.6-82.6c-15.6-29.9-38.8-51-71.6-60.7c-15.3-4.5-30.8-4.6-46.4-2.8
		c-38.4,4.4-72.2,17.2-94.4,53.6c0-3.1,0-4.7,0-6.4c0-50.2,0-100.3,0-150.5c0-9.6-4-15.6-12.9-19.3c-18.3-7.6-35.5,3.8-35.5,23.4
		c0,61.3,0,122.7,0,184c0,65.3,0,130.7,0,196c0,4.6,0.6,9,3.1,12.9c5.3,8.4,17.2,12.1,28,8.9c10.8-3.2,15.9-10.2,15.9-21.8
		c0-9,0-18.1,0-27.5c0.8,0.5,1,0.6,1,0.7c0.9,1.2,1.7,2.4,2.6,3.7c15.3,22,35.2,37.6,60.9,45.9c16.5,5.3,33.4,6.8,50.6,6.2
		c21-0.6,40.7-5.9,58.3-17.7c24.8-16.5,40.1-40.2,49.6-67.9C1584.4,335.5,1586.7,309.3,1586.1,282.7z M1523.5,359.1
		c-11.6,28.4-31.5,47.2-63.2,50c-24.6,2.2-48.2-2.1-68.2-17.9c-17-13.4-26.9-31.5-31.8-52.2c-8.2-34.4-8.9-68.8,1.1-102.9
		c10.8-37.2,40.5-60,77.2-62.2c24.1-1.4,45.8,3.6,64,20.3c14.9,13.6,23.1,30.9,27.8,50.2c3.5,14.4,4.8,29.2,4.6,44
		C1535,312.5,1532.8,336.4,1523.5,359.1z"/>
	<path class="st1" d="M3914.5,221c-5.6-37.1-30.5-63.9-66.6-73.4c-18.1-4.7-36.5-5.3-55-5c-21.3,0.4-42,3.5-62,11.1
		c-15,5.7-28.4,13.7-39.9,25c-6,5.9-7.2,14-3.3,20.5c4.5,7.4,11.8,10.2,20.2,7.8c5.8-1.7,11.1-4.4,16.4-7.2
		c12.6-6.7,25.2-13.8,39.3-16.7c19.8-4.1,39.9-4.8,60-1.1c25.1,4.6,40.1,19.5,44.6,44.1c2.1,11.5,0.6,23.3,1.1,34.9
		c0.2,4-1.2,5-5.1,5c-21.5-0.2-42.9-1-64.4,0.6c-16.9,1.3-33.7,3.4-50.2,7.6c-19.3,4.9-37.8,12.1-53.1,25.3
		c-25.5,22-31.8,50.7-26.5,82.4c6.2,37.3,31.5,56.9,65.9,67c18.2,5.3,36.8,5.3,55.4,2.9c21.7-2.8,41.5-10.6,58.1-25.3
		c7.9-7,13.9-15.5,20-24.4c0,9-0.2,18,0.1,27c0.2,5.8,2.8,10.4,7.9,13.6c5.6,3.5,11.7,4.7,18.1,4.1c12.8-1.1,19.8-8.8,19.8-21.7
		c0-8.5,0.2-17,0.2-25.5c0-34.5,0-69,0-103.5c0-1.7,0-3.3,0.1-5C3916.9,267.8,3918,244.3,3914.5,221z M3859.1,371.2
		c-12.8,24.7-33.7,38.5-60.5,43.5c-18.6,3.5-36.9,1.2-53.9-7.2c-18.9-9.3-27.5-25.4-27.3-46.2c0.2-26.3,17.1-43.8,43.6-51.3
		c18.8-5.4,38.1-7.2,57.6-7.3c15.3-0.1,30.6-0.1,45.9-0.9c3.3-0.2,4.5,0.7,4.3,4.1c-0.2,5.2-0.1,10.3-0.1,16.8
		C3869.5,338.7,3867.2,355.6,3859.1,371.2z"/>
	<path class="st0" d="M2304.7,223.2c-4.1-39.9-25.9-71.5-68.2-82.2c-34.2-8.6-68.5-7-102.4,1.6c-20.3,5.1-38.5,14.4-53.6,29.2
		c-6.6,6.5-7.8,14-3.6,21.2c4.2,7.2,11.3,9.8,20.2,7.5c6.3-1.7,12.1-4.8,17.6-8.1c29.4-17.6,61.1-22.2,94.5-17.4
		c27.9,4,44,19.7,48.1,46.2c1.7,10.9,0.4,21.9,0.9,32.9c0.2,4.4-1,5.8-5.5,5.5c-18.9-1.1-37.8-1.2-56.8-0.1
		c-25.8,1.5-51.2,4.9-75.6,13.8c-17.3,6.3-32.8,15.3-44.8,29.7c-13.5,16.2-18,35.2-18.2,56.1c-0.3,38.5,21.4,65.4,54.1,78.9
		c24.4,10.1,49.9,10.7,75.4,6.3c21.6-3.7,40.7-12.8,56.1-29c5.7-6,10.1-13,15-21.2c0,9.6-0.1,17.8,0,26c0.1,5.7,1.4,11.1,6.1,14.6
		c8.8,6.5,18.5,7.5,28.7,3.3c8-3.4,11.6-9.6,11.6-18c0.2-25.6,0.4-51.3,0.5-76.9c0.1-27.7,0-55.3,0-83
		C2305,247.7,2305.9,235.5,2304.7,223.2z M2252.6,353.7c-11.9,32.9-36.2,50.2-69.9,55.1c-15.9,2.3-31.6,0.1-46.3-6.4
		c-18.6-8.3-29-23.1-30.1-43.4c-1.1-19.7,6.6-35.7,23.4-46.5c12.4-8,26.5-11.2,40.8-13.5c15.6-2.5,31.4-3.1,47.2-4
		c12.5,0,24.9,0,37.4,0c1.9,0,3.1,0.1,3.1,2.6C2258.1,316.4,2259.2,335.4,2252.6,353.7z"/>
</g>
</svg>
